<?xml version="1.0" encoding="UTF-8"?>
<svg width="512" height="512" viewBox="0 0 512 512" fill="none" xmlns="http://www.w3.org/2000/svg">
  <!-- Background Circle -->
  <circle cx="256" cy="256" r="248" fill="url(#gradient)" stroke="white" stroke-width="16"/>
  
  <!-- Music Note -->
  <path d="M320 144V304C320 330.51 298.51 352 272 352C245.49 352 224 330.51 224 304C224 277.49 245.49 256 272 256C280 256 287.5 257.75 294.25 260.875V188.5L192 216V328C192 354.51 170.51 376 144 376C117.49 376 96 354.51 96 328C96 301.49 117.49 280 144 280C152 280 159.5 281.75 166.25 284.875V168C166.25 161.375 171.125 155.625 177.625 154L307.625 116C314.75 114.25 320 116.375 320 144Z" 
    fill="white"/>
  
  <!-- Question Mark -->
  <path d="M368 160C368 171.046 359.046 180 348 180C336.954 180 328 171.046 328 160C328 148.954 336.954 140 348 140C359.046 140 368 148.954 368 160Z" 
    fill="white"/>
  
  <!-- Gradient Definition -->
  <defs>
    <linearGradient id="gradient" x1="0" y1="0" x2="512" y2="512" gradientUnits="userSpaceOnUse">
      <stop offset="0%" style="stop-color:#7C3AED"/>
      <stop offset="100%" style="stop-color:#4F46E5"/>
    </linearGradient>
  </defs>
</svg> 